<svg xmlns="http://www.w3.org/2000/svg" xmlns:xlink="http://www.w3.org/1999/xlink" viewBox="0,0,256,256" width="800px" height="800px"><g transform="translate(-38.4,-38.4) scale(1.3,1.3)"><g fill="none" fill-rule="nonzero" stroke="none" stroke-width="1" stroke-linecap="butt" stroke-linejoin="miter" stroke-miterlimit="10" stroke-dasharray="" stroke-dashoffset="0" font-family="none" font-weight="none" font-size="none" text-anchor="none" style="mix-blend-mode: normal"><g transform="scale(5.33333,5.33333)"><path d="M41,10h-16v28h16c0.553,0 1,-0.447 1,-1v-26c0,-0.553 -0.447,-1 -1,-1z" fill="#2196f3"></path><path d="M25,15.001h14v1.999h-14zM25,19h14v2h-14zM25,23.001h14v2h-14zM25,27.001h14v1.999h-14zM25,31h14v2.001h-14z" fill="#ffffff"></path><path d="M27,42l-21,-4v-28l21,-4z" fill="#0d47a1"></path><path d="M21.167,31.012h-2.717l-1.802,-8.988c-0.098,-0.477 -0.155,-0.996 -0.174,-1.576h-0.032c-0.043,0.637 -0.11,1.162 -0.197,1.576l-1.85,8.988h-2.827l-2.86,-14.014h2.675l1.536,9.328c0.062,0.404 0.111,0.938 0.143,1.607h0.042c0.019,-0.498 0.098,-1.051 0.223,-1.645l1.97,-9.291h2.622l1.785,9.404c0.062,0.348 0.119,0.846 0.17,1.511h0.031c0.02,-0.515 0.073,-1.035 0.16,-1.563l1.503,-9.352h2.468z" fill="#ffffff"></path></g></g></g></svg>